<svg enable-background="new 0 0 140 140" height="512" viewBox="0 0 140 140" width="512" xmlns="http://www.w3.org/2000/svg"><circle cx="70" cy="70" fill="#de594e" r="64"/><path d="m101.9850769 37.7056618c-1.4456177-1.7515869-3.6331177-2.8685303-6.0800171-2.8685303h-51.8099937c-4.3499756 0-7.8800049 3.5300293-7.8800049 7.880127v44.1499062c0 2.2294922.9311523 4.2392578 2.4207153 5.6730957l40.7661095 40.7661056c30.8876953-4.548584 54.5980835-31.1550217 54.5980835-63.3063889 0-.0961914-.0068359-.1906738-.0072632-.2866211z" opacity=".1"/><path d="m95.9033356 34.8345642h-51.8066712c-4.3534164 0-7.8826027 3.5291862-7.8826027 7.8826675v44.1471558c0 4.3534851 3.5291862 7.8826675 7.8826027 7.8826675h51.8066711c4.3534164 0 7.8826065-3.5291824 7.8826065-7.8826675v-44.1471557c.0000001-4.3534813-3.52919-7.8826676-7.8826064-7.8826676z" fill="#467082"/><g fill="#ededed"><path d="m97.2556305 87.6792221h-54.5118904v-45.7764015h54.5118904zm-53.444706-1.0671844h52.3775215v-43.6420327h-52.3775215z"/><path d="m56.5085526 109.8915405h1.6197968c.1396523-.6244583.2839928-1.2488556.4059258-1.8733063 1.825367-.3892517 3.5644913-.960495 5.2374382-1.6577759 1.8597565 1.2542572 3.786087 2.4599228 5.810379 3.5243073-.0045624.0024109-.0093842.004364-.0140762.0067749h3.2136765c-.0848083-.0369339-.1719589-.0702209-.2565079-.1077347 1.514534-.9226532 2.9720154-1.9140854 4.3874207-2.9312439 1.4758453.5886307 3.0057526 1.0746078 4.6034012 1.4204178.1073456.5395203.2331924 1.0790405.3538208 1.6185608h1.6216202c-2.5301361-9.4170151-2.6536331-18.8340836-.3445663-28.251091.0795975-.3213806-.1858978-.6931152-.5984726-.8212967-.412178-.1284485-.8052063.0453949-.8745117.3792801-.080246.380394-.1571045.760788-.2308426 1.1411819-.0644836-.0008469-.1289673.0033188-.1914978.0190201-2.0374451.5018692-3.9620819 1.2331467-5.8054199 2.1115723-1.619278-1.161499-3.2911835-2.2897186-5.0413818-3.3159332.9716949-.5480499 1.9781723-1.0464706 3.0026321-1.5167542h-3.0645142c-.4422684.2442627-.8926163.4777756-1.3247299.7353821-.4771881-.2577438-.9680481-.4958801-1.4578705-.7353821h-3.4102478c.0234451.0121155.0396042.0311356.0652618.0409698 1.1824799.4527588 2.327179.970459 3.4396973 1.5366211-1.4671249.9374313-2.8796539 1.936615-4.2533722 2.9551468-1.5370712-.6541595-3.1310768-1.1994781-4.7988129-1.5913315-.0874138-.4601898-.1795158-.9203033-.2766953-1.3804932-.0693054-.3339462-.4624672-.5076675-.8745155-.3792801-.4123077.1282501-.6785851.4999771-.5984688.8212967 2.3090666 9.4170076 2.1855696 18.8340761-.3445665 28.2510911zm3.0366287-7.9900818c1.6565361-.6553955 3.254837-1.4564362 4.8187485-2.3405914 1.3939056.9454498 2.8005753 1.9062042 4.237999 2.8337326-1.5361633.8979645-3.109848 1.7360001-4.7417603 2.4584198-1.4688111-.9785309-2.9017983-1.978302-4.3149872-2.951561zm20.6651153-7.5029907c-1.2599869-.755188-2.5107269-1.5711441-3.7660217-2.4117203 1.2962036-.7431335 2.6127243-1.4291458 3.9633865-2.0213623-.1154251 1.4776764-.1812133 2.9553452-.1973648 4.4330826zm.2027054 5.9465027c-1.1861267-.5061646-2.3464508-1.0839844-3.489975-1.7091599 1.1010513-.7233353 2.1975479-1.4280396 3.2987366-2.0903397.0272217 1.2665025.0910568 2.5330049.1912384 3.7994996zm-.7993469-4.8676605c-1.3234329.7660599-2.6365662 1.5947876-3.9541321 2.4460449-1.4761124-.8562775-2.9295502-1.7776871-4.3805161-2.7102356 1.3027191-.8537979 2.6066055-1.6993256 3.9271698-2.4968491 1.4660721.9674607 2.9279786 1.9068451 4.4074784 2.7610398zm-5.1911926 3.2494964c-1.4931717.9730606-2.9979401 1.9586334-4.5355377 2.8988037-1.447319-.9087753-2.8651962-1.8561783-4.2719955-2.7927017 1.5011215-.8967209 2.9757919-1.8559799 4.4462967-2.8205719 1.4426268.9286423 2.8899459 1.8510895 4.3612365 2.7144699zm-4.3677521-4.3020248c-1.3582077-.8747101-2.7192841-1.7458344-4.0999069-2.5692825 1.2969894-.8825912 2.6020508-1.7754745 3.9304276-2.638649 1.3883057.8785477 2.7514648 1.7912292 4.1062927 2.6932983-1.3253861.8076859-2.6325303 1.6591416-3.9368134 2.5146332zm-1.2177734.7989578c-1.4705048.9631577-2.9436188 1.9156418-4.4410934 2.8000565-1.3424454-.8865662-2.6798134-1.749939-4.0283852-2.5466156 1.4711571-.8675461 2.9242058-1.8212662 4.3812904-2.803833 1.3748932.8129577 2.7320556 1.6777649 4.0881882 2.5503921zm-9.0473633-.8375168c-.0164146-1.4605408-.0810318-2.9210205-.1941071-4.3815613 1.3311157.5720901 2.6299248 1.2341995 3.9091911 1.9515991-1.2381019.8467713-2.4719047 1.6685868-3.715084 2.4299622zm-.0115967 2.1707764c1.1254158.6909637 2.2457542 1.4272537 3.3710403 2.1830292-1.1704903.6519394-2.3592186 1.2537994-3.5759544 1.778923.1078644-1.3206253.1762543-2.6413193.2049141-3.9619522zm11.2550735 12.5281601c-2.0306702-1.0001602-3.965332-2.1498795-5.835907-3.355278 1.6119843-.7534943 3.165863-1.6136093 4.6811829-2.5270767 1.8058243 1.1200104 3.6672745 2.1668777 5.619133 3.047905-1.4413223.9906463-2.924202 1.9504241-4.4644089 2.8344497zm5.762436-3.7413406c-1.9542007-.8338699-3.8198242-1.8426895-5.6320343-2.932869 1.5366898-.9657059 3.0383301-1.9717255 4.5265503-2.9598999 1.4840546.8235779 2.997551 1.5732269 4.5610733 2.1962509.0906677.0358887.1868057.0450058.2819061.0407104.0289154.291481.0597916.5830307.0927505.8745117-1.2542572.9182206-2.5267486 1.8570176-3.8302459 2.7812959zm1.4111022.564537c.8772507-.6488876 1.7396469-1.3027191 2.5911026-1.9506912.129364.9669418.279953 1.9339447.4517822 2.9009552-1.0408706-.2608719-2.0536041-.5814056-3.0428848-.950264zm2.9808732-22.1711883c-.2609329 1.5138855-.4698868 3.027771-.6266022 4.5416565-1.2670212-.9514999-2.5509796-1.931015-3.8659439-2.899971 1.4436722-.6555939 2.9360656-1.2160874 4.4925461-1.6416855zm-1.7271348 5.2556152c-1.444458.6370926-2.8478699 1.3776169-4.226799 2.1779404-1.3527374-.9156113-2.7155075-1.8462677-4.1053772-2.7471008 1.375412-.8603745 2.7805176-1.6765976 4.2317429-2.4057922 1.3942947.9906539 2.7555084 1.9975203 4.1004333 2.9749526zm-10.4193878-7.0394211c1.757103.9766464 3.437088 2.0620041 5.066658 3.1867676-1.4525299.7607193-2.8575134 1.603775-4.2313538 2.4863663-1.6478043-1.0290833-3.3396454-1.9988937-5.1028671-2.8377075 1.3799668-.9829636 2.7973176-1.9424134 4.2675629-2.8354264zm-5.5206489 3.7406159c1.7646599.8011703 3.4600105 1.7406921 5.1134224 2.7458038-1.3287735.8841476-2.6325302 1.7938995-3.9267807 2.6889343-1.6670837-.9459076-3.3692131-1.8045273-5.1349144-2.5001755 1.2949028-.9610748 2.6056938-1.9530334 3.9482727-2.9345626zm-1.3674622-.5859604c-.9565811.7263947-1.8961029 1.4559784-2.8244171 2.173645-.1300125-1.0949326-.287117-2.1899261-.4715843-3.2847977 1.1294555.3049698 2.2263412.6804123 3.2960014 1.1111527zm-2.855423 18.108139c1.0309715.7400742 2.0757484 1.4894638 3.1404572 2.2299271-1.18013.4610977-2.392437.8562088-3.6439552 1.1656036.1968383-1.1318664.3647613-2.2636642.503498-3.3955307z"/><path d="m89.1022491 79.032341h-38.2044944c-.7055511 0-1.2774429.5719604-1.2774429 1.2775116 0 .7054825.5718918 1.2774429 1.2774429 1.2774429h38.2044945c.7055511 0 1.2774429-.5719604 1.2774429-1.2774429 0-.7055511-.5718918-1.2775116-1.277443-1.2775116z"/></g><ellipse cx="70.51" cy="64.791" fill="#e7a14e" rx="12.464" ry="12.464" transform="matrix(.935 -.355 .355 .935 -18.423 29.287)"/><path d="m71.2306976 67.2339249c-.8816681 0-1.734169-.021019-2.5469513-.0560608.0093231.6014252.0980759 1.1794891.2697372 1.7295151.5710754 1.8252792 1.9946136 3.2815323 4.2309494 4.3278732 1.8159332.8501663 3.4800491 1.2799149 4.8615723 1.4831161-.2662659.2031937-.5418472.3958817-.8256454.576889-1.2799072-.2463989-2.7478409-.6831589-4.3325272-1.4247208-2.42202-1.1339264-3.9716949-2.7338181-4.6034927-4.7541122-.1961899-.6282806-.295433-1.2880936-.3024445-1.9712524-.6084213-.0326996-1.191185-.0735703-1.7435532-.1179504-.4437408-.0362015-.8758469-.0759125-1.2974091-.1179504.0478668 4.9433136 1.3371277 7.9936066 2.7478409 10.025589-.3479996-.081749-.6901855-.1763382-1.0253372-.2861176-1.2974396-2.1195602-2.3928223-5.1710281-2.4231873-9.814209-.9949684-.1097717-1.9105339-.2323914-2.7244911-.3561783-.0011673 1.9140244-.1214561 3.920311-.6889915 6.158989-.1915359-.234726-.3737183-.4776306-.5465508-.7263718.4449387-1.9887695.5372009-3.8011932.5348625-5.5412216-1.2343483-.1996994-2.175602-.3865433-2.7221527-.5021515-.0210152-.2394028-.0350113-.4823074-.0420265-.7263794.4752731.1027679 1.4375725.2989578 2.7583351.5126648-.0058479-.4180756-.0163383-.8326416-.0256882-1.2460403-.0151711-.6586418-.0291977-1.2822456-.0291977-1.9151993 0-2.1137199-.3188057-3.7743378-.5535355-4.7074127.1681862-.24757.345665-.4893074.5313568-.7228699.2300529.7695847.7228622 2.7268257.7228622 5.4302826 0 .6247787.0140266 1.2437096.0291939 1.8988495.0105209.454277.0210419.910881.0268555 1.3721619.8116455.1226196 1.7306938.2464066 2.7326775.3573532.0210114-1.3079453.1249619-2.7361641.3281326-4.2986832.5593796-4.305687 1.4878006-7.3606529 2.7571869-9.0854988.3795395-.1004295.7672577-.1821785 1.1607895-.2464066-.9540863.8419914-2.4056549 3.1425552-3.223114 9.4229965-.2031937 1.5613518-.3048096 2.9837379-.3234863 4.2823296.9599304.0969315 1.9876022.1798401 3.0631485.2382278.1179428-1.4609222.6422882-3.0175934 1.5671768-4.6069717 2.3519745-4.0464363 7.637413-5.7631073 9.3541107-6.22789.2020264.1856766.3982086.3771973.5874023.5745544-.8618469.2102051-6.8993835 1.8159332-9.3354263 6.004837-.8676758 1.4912872-1.3604813 2.9393616-1.4737549 4.2905121 4.437645.1926804 9.6004944-.0525513 14.2658615-1.4667664-.0035095.2499084-.0151672.496315-.0338745.7415619-3.8747557 1.1386033-8.0402983 1.4901124-11.7072142 1.4901124z" fill="#d59247"/></svg>